Coordinates
version=1
nRows=11
nColumns=36
inDegrees=yes

Units are S.I. units (second, meters, Newtons, ...)
If the header above contains a line with 'inDegrees', this indicates whether rotational values are in degrees (yes) or radians (no).

endheader
time	pelvis_tilt	pelvis_list	pelvis_rotation	pelvis_tx	pelvis_ty	pelvis_tz	hip_flexion_r	hip_adduction_r	hip_rotation_r	knee_angle_r	knee_angle_r_beta	ankle_angle_r	subtalar_angle_r	mtp_angle_r	hip_flexion_l	hip_adduction_l	hip_rotation_l	knee_angle_l	knee_angle_l_beta	ankle_angle_l	subtalar_angle_l	mtp_angle_l	lumbar_extension	lumbar_bending	lumbar_rotation	arm_flex_r	arm_add_r	arm_rot_r	elbow_flex_r	pro_sup_r	arm_flex_l	arm_add_l	arm_rot_l	elbow_flex_l	pro_sup_l
      6.65000000	     -3.39324481	      3.91588491	      2.24853176	      0.92394807	      1.10599316	     -0.02186104	     -0.02023031	     -2.57915891	    -22.73988594	      0.37235980	      0.00649890	    -39.38480770	      8.67729717	     -7.49999987	      5.72363478	      2.51623960	     -9.30367628	      0.62903416	      0.01097872	    -36.35621295	      5.90190643	     -7.49999987	     -2.54137728	     -6.04237323	      4.23516742	     -1.73585685	     -5.80470912	     10.21143101	     35.34866007	     78.83691385	      2.93404376	     -9.89900438	     20.78402920	     22.78759090	     78.99810882
      6.66666670	     -2.92712629	      4.10480786	      2.91170672	      0.92871968	      1.09498315	     -0.02746756	      0.42035980	     -3.07132876	    -21.44580945	      0.38123315	      0.00665377	    -36.70037917	      9.13706745	     -7.49999987	      6.01736172	      2.35561020	     -9.25897891	      0.76114155	      0.01328443	    -34.38666386	      4.69966190	     -7.49999987	     -3.17180816	     -6.20045946	      3.52508589	     -2.22492836	     -5.71567135	     10.22085915	     37.18813082	     77.77499811	      2.12565306	    -10.46168727	     21.10278658	     22.71484609	     77.67202242
      6.68333330	     -2.78852240	      3.89803961	      3.54258303	      0.93328595	      1.08746536	     -0.03357131	      1.31154675	     -3.09807467	    -20.75849070	      0.40077156	      0.00699478	    -34.56360241	      9.44178886	     -7.49999987	      6.74709869	      1.85235660	     -9.13804672	      0.80474935	      0.01404553	    -32.79009969	      3.93002733	     -7.49999987	     -3.34189738	     -5.83941116	      3.83432974	     -3.14567174	     -6.06291655	     10.08857755	     38.69833858	     80.43457941	      2.64972558	    -10.49501143	     25.06912743	     20.39757367	     77.61210148
      6.70000000	     -2.75737162	      3.51563100	      4.01590745	      0.93423212	      1.07329543	     -0.03809117	      2.68330577	     -2.76157034	    -20.04627109	      0.43003634	      0.00750555	    -32.85596668	      8.95080804	     -7.49999987	      7.77092680	      1.20349558	     -9.80835830	      0.94102815	      0.01642404	    -31.00814217	      3.45255331	     -7.49999987	     -3.72241154	     -5.33400446	      3.71206652	     -3.45300614	     -6.12900790	     10.12197813	     39.53279258	     79.81462289	      2.06400841	    -10.84474843	     25.00933754	     21.61493515	     77.01099410
      6.71666670	     -1.93050315	      3.01486926	      4.47840383	      0.93983950	      1.05658393	     -0.04204425	      3.28476275	     -2.20138709	    -19.12001614	      0.46954193	      0.00819505	    -31.10049915	      8.39925074	     -7.49999987	      7.70524011	      0.42768111	     -9.74254585	      0.94693388	      0.01652711	    -29.82218111	      1.60890297	     -7.49999987	     -5.15863369	     -4.49921023	      3.21936750	     -3.31138092	     -6.50435856	     10.86631344	     40.48685798	     79.47931831	      1.78235403	    -10.70242155	     24.88985572	     21.49606322	     76.09740564
      6.73333330	     -1.76404004	      2.55408959	      5.24139365	      0.94326138	      1.03873868	     -0.04751596	      4.33959185	     -1.74755357	    -18.71275497	      0.51495395	      0.00898764	    -30.03837485	      7.84554868	     -7.49999987	      8.36911909	     -0.15947106	     -9.98342743	      0.98980481	      0.01727535	    -29.61647120	      0.10647818	     -7.49999987	     -5.63739469	     -3.75889614	      2.81461732	     -3.37369432	     -6.81296922	     11.59900809	     41.10942063	     79.27170366	      1.62060721	    -10.66964144	     24.88678904	     21.83700538	     75.42612024
      6.75000000	     -1.26516774	      2.20971247	      5.89378091	      0.95071581	      1.02194291	     -0.05430304	      4.79913467	     -1.42111420	    -19.32207900	      0.59207136	      0.01033359	    -30.35517778	      6.57493448	     -7.49999987	      8.40481527	     -0.57044097	    -10.18830419	      1.07208842	      0.01871147	    -30.02903226	     -0.78622451	     -7.49999987	     -6.48802219	     -3.02268870	      2.29768933	     -3.26440810	     -7.16735806	     12.49504512	     41.45232393	     78.84285147	      1.27770620	    -10.60512411	     24.93733240	     22.43474512	     74.47494433
      6.76666670	     -1.08410432	      1.72453068	      6.39645545	      0.95158702	      0.99767301	     -0.05809918	      5.92753435	     -0.84602826	    -19.13046266	      0.65982043	      0.01151604	    -30.33380394	      5.63664326	     -7.49999987	      9.06627285	     -1.08059966	    -10.61432838	      1.69206515	      0.02953211	    -31.06320256	     -2.01761236	     -7.49999987	     -6.98291123	     -2.15127189	      1.77582837	     -2.56820762	     -7.76722342	     14.77086767	     41.17110732	     79.48242703	      0.94506396	    -10.51663318	     25.03517052	     22.96262138	     73.47687530
      6.78333330	     -0.46111763	      1.38523527	      7.16158940	      0.96293429	      0.97168129	     -0.06509542	      6.35269316	     -0.37771486	    -19.51072963	      0.78848947	      0.01376174	    -29.93766942	      4.77629169	     -7.49999987	      8.98092764	     -1.39703526	    -11.42147735	      2.39930005	      0.04187569	    -33.71981192	     -2.80645162	     -7.49999987	     -7.74896271	     -1.44059252	      1.31105345	     -2.36584593	     -7.94194986	     15.79189827	     40.77272736	     77.43913898	      0.68142002	    -10.36485558	     24.80480581	     23.90791600	     71.12171847
      6.80000000	      0.35814253	      1.19383781	      7.84011459	      0.96885595	      0.93983960	     -0.06902555	      6.72556749	      0.12874495	    -19.07801030	      1.31282390	      0.02291310	    -29.09310375	      3.99632948	     -7.49999987	      9.16003847	     -1.63018646	    -11.80055636	      4.35337006	      0.07598064	    -35.19290851	     -4.99567307	     -7.49999987	     -8.88831675	     -0.94283200	      0.91886088	     -2.04756337	     -8.07340334	     16.38356960	     40.54824550	     78.30035631	      0.58127263	    -10.28505524	     24.67603352	     24.56373999	     71.19359884
      6.81666670	      1.76097210	      0.78925008	      8.77031222	      0.97857297	      0.90704578	     -0.07370035	      6.53415489	      0.76317295	    -18.00949336	      3.56699452	      0.06225580	    -25.99607902	      1.90917723	     -7.49999987	      8.97695011	     -2.38806184	    -11.62261270	      9.22143244	      0.16094436	    -31.22611786	     -7.27992540	     -7.49999987	    -10.54746781	     -0.14221839	      0.56231185	     -1.75586873	     -8.20102849	     16.48013758	     40.30550047	     77.50990004	      0.74105880	    -10.09444224	     24.44406795	     25.44719885	     70.59605000
